<svg width="1200" height="675" viewBox="0 0 1200 675" fill="none" xmlns="http://www.w3.org/2000/svg">
<g clip-path="url(#clip0_2038_180)">
<path d="M468.408 331.184H440.986L432.595 310.957H386.915L379.274 331.184H352.321L393.501 229.018H423.009L468.408 331.184ZM408.642 253.417L393.665 293.121H425.119L408.642 253.417Z" fill="black"/>
<path d="M567.996 229.018H590.168V331.184H564.691V267.362L537.128 299.402H533.237L505.674 267.362V331.184H480.197V229.018H502.37L535.183 266.917L567.996 229.018Z" fill="black"/>
<path d="M654.692 229.018C691.982 229.018 711.154 252.222 711.154 280.253C711.154 309.621 692.591 331.184 651.833 331.184H609.598V229.018H654.692ZM635.051 312.457H651.669C677.286 312.457 684.927 295.089 684.927 280.089C684.927 262.558 675.482 247.745 651.364 247.745H635.051V312.457Z" fill="black"/>
<path d="M814.491 253.229H761.827L729.693 221.12H846.601V338.028L814.491 305.918V253.229Z" fill="black"/>
<path d="M761.78 305.941V259.675L728.709 292.722V339.012H774.999L808.046 305.941H761.78Z" fill="black"/>
<path d="M428.541 382.255L395.54 453.787H385.321L352.321 382.255H363.571L390.431 440.498L417.314 382.255H428.541Z" fill="black"/>
<path d="M435.595 384.809H445.814V395.028H435.595V384.809ZM435.595 402.692H445.814V453.787H435.595V402.692Z" fill="black"/>
<path d="M512.823 402.692L489.221 453.787H479.002L455.4 402.692H466.65L484.112 440.498L501.573 402.692H512.823Z" fill="black"/>
<path d="M524.683 402.692H556.675C564.339 402.692 570.574 408.927 570.574 416.685V453.763H560.355V443.545C560.355 449.17 555.761 453.763 550.136 453.763H533.472C525.808 453.763 519.479 447.529 519.479 439.771V437.123C519.479 429.365 525.808 423.13 533.472 423.13L550.136 423.224C555.761 423.224 560.355 427.818 560.355 433.443V416.685C560.355 414.646 558.714 412.911 556.581 412.911H524.706V402.692H524.683ZM560.355 433.443L533.589 433.349C531.433 433.349 529.815 435.083 529.815 437.123V439.771C529.815 441.81 531.456 443.545 533.589 443.545H560.355V433.443Z" fill="black"/>
<path d="M625.746 382.255H635.872V453.787H598.793C591.129 453.787 584.894 447.552 584.894 439.795V416.708C584.894 408.95 591.129 402.716 598.793 402.716H625.77V382.255H625.746ZM625.746 443.568V412.911H598.863C596.707 412.911 595.09 414.646 595.09 416.685V439.771C595.09 441.81 596.73 443.545 598.863 443.545H625.746V443.568Z" fill="black"/>
<path d="M687.857 402.692C695.521 402.692 701.755 408.927 701.755 416.591V439.794C701.755 447.552 695.521 453.787 687.857 453.787H664.653C656.895 453.787 650.661 447.552 650.661 439.794V416.591C650.661 408.927 656.895 402.692 664.653 402.692H687.857ZM691.536 416.685C691.536 414.528 689.896 412.911 687.763 412.911H664.677C662.52 412.911 660.903 414.552 660.903 416.685V439.771C660.903 441.927 662.544 443.545 664.677 443.545H687.763C689.919 443.545 691.536 441.904 691.536 439.771V416.685Z" fill="black"/>
</g>
<defs>
<clipPath id="clip0_2038_180">
<rect width="495.359" height="232.761" fill="white" transform="translate(352.321 221.12)"/>
</clipPath>
</defs>
</svg>
